<?xml version="1.0" encoding="iso-8859-1"?>
<!-- Generator: Adobe Illustrator 19.0.0, SVG Export Plug-In . SVG Version: 6.00 Build 0)  -->
<svg version="1.1" id="Layer_1" xmlns="http://www.w3.org/2000/svg" xmlns:xlink="http://www.w3.org/1999/xlink" x="0px" y="0px"
	 viewBox="0 0 511.999 511.999" style="enable-background:new 0 0 511.999 511.999;" xml:space="preserve">
<g>
	<g>
		<path d="M256.008,0.022c-65.298,0-118.422,53.123-118.422,118.422s53.123,118.422,118.422,118.422S374.43,183.743,374.43,118.444
			S321.306,0.022,256.008,0.022z M256.008,206.451c-48.527,0-88.008-39.479-88.008-88.008c0-48.529,39.479-88.008,88.008-88.008
			s88.008,39.479,88.008,88.008C344.015,166.972,304.535,206.451,256.008,206.451z"/>
	</g>
</g>
<g>
	<g>
		<path d="M256.008,275.133c-65.298,0-118.422,53.123-118.422,118.422s53.123,118.422,118.422,118.422
			S374.43,458.854,374.43,393.555S321.306,275.133,256.008,275.133z M256.008,481.563c-48.527,0-88.008-39.479-88.008-88.008
			s39.479-88.008,88.008-88.008s88.008,39.479,88.008,88.008S304.535,481.563,256.008,481.563z"/>
	</g>
</g>
<g>
	<g>
		<path d="M275.631,103.237h-4.416V90.016h29.556V59.601h-29.556V47.152h-30.415V59.6h-4.416c-20.416,0-37.026,16.609-37.026,37.026
			c0,20.416,16.609,37.026,37.026,37.026h4.416v13.22h-29.556v30.415h29.556v12.449h30.415v-12.449h4.416
			c20.416,0,37.026-16.609,37.026-37.025C312.657,119.845,296.048,103.237,275.631,103.237z M240.801,103.236h-4.416v0.001
			c-3.646,0-6.611-2.965-6.611-6.611s2.965-6.611,6.611-6.611h4.416V103.236z M275.631,146.872h-4.416v-13.22h4.416
			c3.646,0,6.611,2.965,6.611,6.611C282.242,143.906,279.277,146.872,275.631,146.872z"/>
	</g>
</g>
<g>
	<g>
		<path d="M304.885,408.762v-30.415h-69.57v-3.116c0-8.484,6.903-15.387,15.387-15.387h38.564V329.43h-38.564
			c-25.254,0-45.801,20.547-45.801,45.801v3.116h-16.033v30.415H204.9v3.116c0,25.254,20.547,45.801,45.801,45.801h38.564v-30.415
			h-38.564c-8.484,0-15.387-6.903-15.387-15.387v-3.116H304.885z"/>
	</g>
</g>
<g>
	<g>
		<path d="M450.561,142.485l20.041-6.434l-9.297-28.959l-71.865,23.071l23.07,71.866l28.959-9.297l-8.067-25.13
			c37.627,24.299,56.928,71.126,44.341,116.509c-9.951,35.878-37.335,63.265-73.253,73.264l8.156,29.299
			c22.122-6.157,42.473-17.915,58.851-34.003c16.896-16.595,29.191-37.491,35.553-60.432
			C523.204,234.005,498.623,173.934,450.561,142.485z"/>
	</g>
</g>
<g>
	<g>
		<path d="M99.536,309.988l-28.96,9.298l8.084,25.184c-14.174-9.109-26.019-21.58-34.552-36.663
			c-13.834-24.452-17.316-52.828-9.808-79.901c9.951-35.877,37.334-63.264,73.253-73.264l-8.156-29.299
			c-22.123,6.157-42.474,17.915-58.852,34.002c-16.896,16.595-29.19,37.492-35.552,60.432c-9.681,34.901-5.19,71.481,12.644,103.005
			c10.847,19.173,25.846,35.072,43.783,46.771l-19.976,6.412l9.297,28.959l71.866-23.07L99.536,309.988z"/>
	</g>
</g>
<g>
</g>
<g>
</g>
<g>
</g>
<g>
</g>
<g>
</g>
<g>
</g>
<g>
</g>
<g>
</g>
<g>
</g>
<g>
</g>
<g>
</g>
<g>
</g>
<g>
</g>
<g>
</g>
<g>
</g>
</svg>
