<svg height="512pt" viewBox="0 -10 512 512" width="512pt" xmlns="http://www.w3.org/2000/svg"><path d="m439.453125 318.894531c40.003906 0 72.546875-32.386719 72.546875-72.199219 0-18.21875-6.839844-35.613281-19.261719-48.984374-9.292969-10.007813-21.089843-17.101563-34.066406-20.636719-2.589844-22.4375-11.960937-43.664063-27.023437-60.804688-14.894532-16.953125-34.5-28.976562-56.136719-34.621093-5.382813-45.902344-44.707031-81.648438-92.265625-81.648438-46.695313 0-85.457032 34.460938-91.941406 79.164062-24.183594 3.476563-46.492188 14.671876-63.886719 32.273438-17.144531 17.34375-27.945313 39.332031-31.207031 63.058594h-23.664063c-40.003906 0-72.546875 32.386718-72.546875 72.199218s32.542969 72.199219 72.546875 72.199219h214.777344v41.460938h-16.816407c-5.808593 0-11.09375 3.351562-13.570312 8.605469-2.476562 5.253906-1.695312 11.464843 2 15.941406l83.207031 100.820312c2.851563 3.453125 7.09375 5.453125 11.570313 5.453125 4.476562 0 8.71875-2 11.566406-5.453125l83.210938-100.820312c3.695312-4.476563 4.472656-10.6875 1.996093-15.941406-2.472656-5.253907-7.757812-8.605469-13.566406-8.605469h-16.816406v-41.460938zm-409.453125-72.199219c0-23.269531 19.085938-42.199218 42.546875-42.199218h37.617187c8.265626 0 14.96875-6.683594 15-14.945313.078126-21.457031 8.453126-41.710937 23.589844-57.027343 15.140625-15.320313 35.367188-24.019532 56.949219-24.503907 8.195313-.179687 14.726563-6.90625 14.664063-15.105469 0-.207031-.003907-.410156-.015626-.648437.085938-34.347656 28.269532-62.265625 62.894532-62.265625 34.683594 0 62.894531 28.003906 62.894531 62.421875 0 .15625-.007813.3125-.011719.46875-.011718.273437-.019531.546875-.023437.820313-.152344 7.570312 5.359375 14.066406 12.851562 15.148437 19.386719 2.800781 37.199219 12.464844 50.15625 27.210937 13.0625 14.859376 20.265625 33.921876 20.292969 53.667969.007812 7.785157 5.976562 14.269531 13.730469 14.925781 21.792969 1.851563 38.863281 20.3125 38.863281 42.03125 0 23.269532-19.085938 42.199219-42.546875 42.199219h-19.664063c-3.230468-33.613281-31.628906-59.984375-66.074218-59.984375-34.449219 0-62.84375 26.371094-66.078125 59.984375h-215.089844c-23.460937 0-42.546875-18.929687-42.546875-42.199219zm323.714844 205.914063-51.378906-62.253906c8.277343-.007813 14.988281-6.71875 14.988281-15v-80.054688c0-20.066406 16.324219-36.390625 36.390625-36.390625s36.390625 16.324219 36.390625 36.390625v80.054688c0 8.28125 6.710937 14.992187 14.988281 15zm0 0"/></svg>